<svg width="25" height="25" viewBox="0 0 25 25" fill="none" xmlns="http://www.w3.org/2000/svg">
<g clip-path="url(#clip0_226_291)">
<path d="M11.4585 4.16674H4.16683C3.61429 4.16674 3.08439 4.38623 2.69369 4.77693C2.30299 5.16763 2.0835 5.69754 2.0835 6.25007V20.8334C2.0835 21.3859 2.30299 21.9158 2.69369 22.3065C3.08439 22.6972 3.61429 22.9167 4.16683 22.9167H18.7502C19.3027 22.9167 19.8326 22.6972 20.2233 22.3065C20.614 21.9158 20.8335 21.3859 20.8335 20.8334V13.5417M19.271 2.60424C19.6854 2.18984 20.2474 1.95703 20.8335 1.95703C21.4195 1.95703 21.9816 2.18984 22.396 2.60424C22.8104 3.01864 23.0432 3.58069 23.0432 4.16674C23.0432 4.75279 22.8104 5.31484 22.396 5.72924L12.5002 15.6251L8.3335 16.6667L9.37516 12.5001L19.271 2.60424Z" stroke="white" stroke-width="4" stroke-linecap="round" stroke-linejoin="round"/>
</g>
<defs>
<clipPath id="clip0_226_291">
<rect width="25" height="25" fill="white"/>
</clipPath>
</defs>
</svg>
